<?xml version="1.0" encoding="utf-8"?>
<!-- Generator: Adobe Illustrator 21.0.2, SVG Export Plug-In . SVG Version: 6.00 Build 0)  -->
<svg version="1.1" id="Layer_1" xmlns="http://www.w3.org/2000/svg" xmlns:xlink="http://www.w3.org/1999/xlink" x="0px" y="0px"
	 viewBox="0 0 392.3 87.6" style="enable-background:new 0 0 392.3 87.6;" xml:space="preserve">
<path d="M43,64.2H30.5V35.3c0-3.5-0.2-9.4-8.1-9.4c-5.5,0-9.8,3.8-9.8,11v27.3H0V0h12.5v22.8h0.2c1.6-3.9,7-7.4,13.8-7.4
	c9.3,0,16.5,5.5,16.5,15.9V64.2z"/>
<path d="M125.2,31.1c-0.5-3-1.6-6.3-8.4-6.3s-7.7,2.6-7.7,4.6c0,7.5,29.8,2.1,29.8,19.6c0,13.9-13.4,16.4-20.8,16.4
	c-10.8,0-22.5-3.8-22.9-16.4H108c0,4,2.5,7,10.4,7c6.4,0,8-3.1,8-4.9c0-8-29.5-2-29.5-19.8c0-7,4.4-15.9,19.2-15.9
	c9.3,0,20.4,2.3,21.4,15.7H125.2z"/>
<path d="M152.7,23.5h0.2c2.3-3.8,5.8-8.1,14.2-8.1c10.5,0,19.8,8,19.8,24.5c0,13-5.9,25.6-20,25.6c-8.8,0-11.9-4.7-13.4-7.3h-0.2
	v24.6h-12.5V16.6h12V23.5z M163.7,55.1c8,0,10.3-8.8,10.3-14.4c0-7.5-2.7-14.6-10.6-14.6c-8.6,0-10.6,7.7-10.6,15.3
	C152.7,48.5,155.7,55.1,163.7,55.1"/>
<path d="M96.2,40.1c0,14.1-11.7,25.5-26.1,25.5C55.7,65.6,44,54.2,44,40.1c0-14.1,11.7-25.5,26.1-25.5
	C84.5,14.6,96.2,26.1,96.2,40.1"/>
<path d="M203,11h-12.5V-0.6H203V11z M203,64.2h-12.5V16.6H203V64.2z"/>
<path d="M224.6,16.6h7.8v8.9h-7.8v25.8c0,2.8,0.1,3.8,5.2,3.8c0.8,0,1.7-0.1,2.6-0.2v9.5c-2,0.1-3.9,0.2-5.9,0.2h-1.6
	c-10.8,0-12.8-4.1-12.8-10.3V25.6h-6.4v-8.9h6.4V3.8h12.5V16.6z"/>
<path d="M276.3,54.9c0,5.6,1.3,6.9,2.8,7.4v1.9h-13.5c-0.7-2.2-0.9-2.9-1.2-5.6c-2.9,3-6.9,6.9-15.4,6.9c-7.2,0-14.5-4-14.5-13.9
	c0-9.3,5.9-14,13.9-15.2l11.3-1.7c2-0.3,4.4-1.1,4.4-3.8c0-5.3-5-5.5-8.2-5.5c-6.3,0-7.3,3.8-7.7,6.6h-12.1
	c1.4-14.6,11.5-16.6,21.3-16.6c6.7,0,18.9,2.1,18.9,13.8V54.9z M264,41c-1.2,1-3.3,1.8-8.5,2.6c-4.6,0.8-8.5,2-8.5,7.2
	c0,4.4,3.4,5.7,5.8,5.7c5.5,0,11.2-3.6,11.2-9.4V41z"/>
<rect x="282.4" width="12.5" height="64.2"/>
<path d="M314.2,11h-12.5V-0.6h12.5V11z M314.2,64.2h-12.5V16.6h12.5V64.2z"/>
<path d="M335.8,16.6h7.8v8.9h-7.8v25.8c0,2.8,0.1,3.8,5.2,3.8c0.8,0,1.7-0.1,2.6-0.2v9.5c-2,0.1-3.9,0.2-5.9,0.2H336
	c-10.8,0-12.8-4.1-12.8-10.3V25.6h-6.4v-8.9h6.4V3.8h12.5V16.6z"/>
<path d="M376,63.4c-5.9,17.6-7.5,19.9-18.4,19.9c-1.7,0-3.8-0.1-5.6-0.2v-10c0.5,0.1,1.3,0.2,2.4,0.2c4.6,0,7.1-0.6,8.2-7.2
	l-17.5-49.5H359l10.2,35h0.2l9.7-35h13.2L376,63.4z"/>
<path d="M266.1,73.3h1.7v1.4c0.4-0.5,0.8-0.9,1.1-1.1c0.6-0.4,1.2-0.6,1.9-0.6c0.8,0,1.4,0.2,1.9,0.6c0.3,0.2,0.5,0.6,0.8,1
	c0.4-0.5,0.8-0.9,1.3-1.2c0.5-0.3,1.1-0.4,1.7-0.4c1.4,0,2.3,0.5,2.8,1.5c0.3,0.5,0.4,1.2,0.4,2.1v6.7h-1.8v-7
	c0-0.7-0.2-1.1-0.5-1.4c-0.3-0.2-0.7-0.4-1.2-0.4c-0.7,0-1.2,0.2-1.7,0.7c-0.5,0.4-0.7,1.2-0.7,2.2v5.8H272v-6.5
	c0-0.7-0.1-1.2-0.2-1.5c-0.3-0.5-0.7-0.7-1.4-0.7c-0.6,0-1.2,0.2-1.7,0.7c-0.5,0.5-0.8,1.4-0.8,2.7v5.3h-1.7V73.3z"/>
<path d="M287.5,77.3c0.4,0,0.6-0.2,0.8-0.5c0.1-0.1,0.1-0.4,0.1-0.6c0-0.6-0.2-1-0.6-1.3c-0.4-0.3-1-0.4-1.8-0.4
	c-0.9,0-1.5,0.2-1.9,0.7c-0.2,0.3-0.3,0.7-0.4,1.2h-1.6c0-1.2,0.4-2.1,1.2-2.6c0.8-0.5,1.7-0.7,2.7-0.7c1.2,0,2.1,0.2,2.9,0.7
	c0.7,0.4,1.1,1.1,1.1,2.1v5.8c0,0.2,0,0.3,0.1,0.4c0.1,0.1,0.2,0.2,0.5,0.2c0.1,0,0.2,0,0.3,0c0.1,0,0.2,0,0.3,0v1.2
	c-0.3,0.1-0.5,0.1-0.6,0.1c-0.1,0-0.3,0-0.6,0c-0.6,0-1-0.2-1.3-0.6c-0.1-0.2-0.2-0.5-0.3-0.9c-0.3,0.4-0.8,0.8-1.5,1.2
	c-0.6,0.3-1.4,0.5-2.1,0.5c-0.9,0-1.7-0.3-2.3-0.8c-0.6-0.6-0.9-1.3-0.9-2.1c0-0.9,0.3-1.6,0.9-2.2c0.6-0.5,1.3-0.8,2.3-0.9
	L287.5,77.3z M283.9,81.8c0.4,0.3,0.8,0.4,1.3,0.4c0.6,0,1.2-0.1,1.7-0.4c0.9-0.5,1.4-1.2,1.4-2.2v-1.4c-0.2,0.1-0.5,0.2-0.8,0.3
	c-0.3,0.1-0.6,0.2-1,0.2l-1,0.1c-0.6,0.1-1.1,0.2-1.4,0.4c-0.5,0.3-0.8,0.8-0.8,1.4C283.4,81.2,283.6,81.6,283.9,81.8"/>
<path d="M298.3,73.7c0.3,0.2,0.6,0.5,1,1v-1.3h1.6v9.1c0,1.3-0.2,2.3-0.6,3c-0.7,1.4-2,2-3.9,2c-1.1,0-2-0.2-2.7-0.7
	c-0.7-0.5-1.1-1.2-1.2-2.3h1.7c0.1,0.5,0.2,0.8,0.5,1c0.4,0.4,1,0.6,1.8,0.6c1.3,0,2.1-0.5,2.5-1.4c0.2-0.5,0.3-1.5,0.3-2.9
	c-0.3,0.5-0.7,0.9-1.2,1.1c-0.5,0.3-1.1,0.4-1.9,0.4c-1.1,0-2-0.4-2.8-1.2c-0.8-0.8-1.2-2-1.2-3.8c0-1.7,0.4-3,1.2-3.9
	c0.8-0.9,1.8-1.4,3-1.4C297.1,73.1,297.7,73.3,298.3,73.7 M298.5,75.5c-0.5-0.6-1.2-0.9-1.9-0.9c-1.2,0-2,0.6-2.4,1.7
	c-0.2,0.6-0.3,1.4-0.3,2.3c0,1.1,0.2,2,0.7,2.6c0.5,0.6,1.1,0.9,1.8,0.9c1.2,0,2.1-0.5,2.5-1.6c0.3-0.6,0.4-1.3,0.4-2.2
	C299.3,77.1,299,76.1,298.5,75.5"/>
<path d="M308.8,77.3c0.4,0,0.6-0.2,0.8-0.5c0.1-0.1,0.1-0.4,0.1-0.6c0-0.6-0.2-1-0.6-1.3c-0.4-0.3-1-0.4-1.8-0.4
	c-0.9,0-1.5,0.2-1.9,0.7c-0.2,0.3-0.3,0.7-0.4,1.2h-1.6c0-1.2,0.4-2.1,1.2-2.6c0.8-0.5,1.7-0.7,2.7-0.7c1.2,0,2.1,0.2,2.9,0.7
	c0.7,0.4,1.1,1.1,1.1,2.1v5.8c0,0.2,0,0.3,0.1,0.4c0.1,0.1,0.2,0.2,0.5,0.2c0.1,0,0.2,0,0.3,0c0.1,0,0.2,0,0.3,0v1.2
	c-0.3,0.1-0.5,0.1-0.6,0.1c-0.1,0-0.3,0-0.6,0c-0.6,0-1-0.2-1.3-0.6c-0.1-0.2-0.2-0.5-0.3-0.9c-0.3,0.4-0.8,0.8-1.5,1.2
	c-0.6,0.3-1.4,0.5-2.1,0.5c-0.9,0-1.7-0.3-2.3-0.8c-0.6-0.6-0.9-1.3-0.9-2.1c0-0.9,0.3-1.6,0.9-2.2c0.6-0.5,1.3-0.8,2.3-0.9
	L308.8,77.3z M305.3,81.8c0.4,0.3,0.8,0.4,1.3,0.4c0.6,0,1.2-0.1,1.7-0.4c0.9-0.5,1.4-1.2,1.4-2.2v-1.4c-0.2,0.1-0.5,0.2-0.8,0.3
	c-0.3,0.1-0.6,0.2-1,0.2l-1,0.1c-0.6,0.1-1.1,0.2-1.4,0.4c-0.5,0.3-0.8,0.8-0.8,1.4C304.7,81.2,304.9,81.6,305.3,81.8"/>
<polygon points="313.3,82 319.3,74.8 313.8,74.8 313.8,73.3 321.6,73.3 321.6,74.7 315.7,81.8 321.8,81.8 321.8,83.4 313.3,83.4 "/>
<path d="M323.7,69.6h1.7v1.9h-1.7V69.6z M323.7,73.4h1.7v10h-1.7V73.4z"/>
<path d="M328,73.3h1.6v1.4c0.5-0.6,1-1,1.5-1.3c0.5-0.3,1.1-0.4,1.8-0.4c1.4,0,2.4,0.5,2.9,1.5c0.3,0.5,0.4,1.3,0.4,2.3v6.4h-1.7V77
	c0-0.6-0.1-1.1-0.3-1.5c-0.3-0.6-0.8-0.9-1.6-0.9c-0.4,0-0.7,0-1,0.1c-0.5,0.1-0.9,0.4-1.2,0.8c-0.3,0.3-0.5,0.7-0.5,1
	c-0.1,0.4-0.1,0.9-0.1,1.5v5.3H328V73.3z"/>
<path d="M344.8,73.6c0.7,0.3,1.2,0.8,1.5,1.3c0.3,0.5,0.6,1.1,0.7,1.8c0.1,0.5,0.1,1.2,0.1,2.2h-7.3c0,1,0.3,1.8,0.7,2.5
	c0.4,0.6,1.1,0.9,2.1,0.9c0.9,0,1.6-0.3,2.1-0.9c0.3-0.3,0.5-0.7,0.6-1.2h1.7c0,0.4-0.2,0.8-0.4,1.2c-0.2,0.5-0.5,0.8-0.8,1.1
	c-0.5,0.5-1.1,0.8-1.9,1c-0.4,0.1-0.9,0.1-1.4,0.1c-1.2,0-2.3-0.5-3.2-1.4c-0.9-0.9-1.3-2.2-1.3-3.8c0-1.6,0.4-2.9,1.3-3.9
	c0.9-1,2-1.5,3.4-1.5C343.5,73.1,344.2,73.3,344.8,73.6 M345.4,77.5c-0.1-0.7-0.2-1.3-0.5-1.8c-0.5-0.8-1.2-1.2-2.3-1.2
	c-0.8,0-1.4,0.3-1.9,0.8c-0.5,0.6-0.8,1.3-0.8,2.1H345.4z"/>
</svg>
