<?xml version="1.0" standalone="no"?>
<!DOCTYPE svg PUBLIC "-//W3C//DTD SVG 20010904//EN"
 "http://www.w3.org/TR/2001/REC-SVG-20010904/DTD/svg10.dtd">
<svg version="1.0" xmlns="http://www.w3.org/2000/svg"
 width="310.000000pt" height="70.000000pt" viewBox="0 0 310.000000 70.000000"
 preserveAspectRatio="xMidYMid meet">
<metadata>
Created by potrace 1.14, written by Peter Selinger 2001-2017
</metadata>
<g transform="translate(0.000000,70.000000) scale(0.100000,-0.100000)"
fill="#000000" stroke="none">
<path d="M0 440 l0 -250 50 0 50 0 0 125 c0 120 1 127 25 150 30 31 75 33 101
4 16 -18 19 -40 22 -150 l4 -129 44 0 44 0 0 135 c0 150 -10 192 -55 221 -40
26 -117 24 -155 -4 l-30 -23 0 86 0 85 -50 0 -50 0 0 -250z"/>
<path d="M2230 440 l0 -250 45 0 45 0 0 250 0 250 -45 0 -45 0 0 -250z"/>
<path d="M1680 610 c0 -47 -2 -50 -25 -50 -22 0 -25 -4 -25 -35 0 -31 3 -35
25 -35 l25 0 0 -134 c0 -128 1 -136 22 -150 14 -10 44 -16 75 -16 l53 0 0 35
c0 32 -2 35 -30 35 l-30 0 0 115 0 115 30 0 c28 0 30 3 30 35 0 32 -2 35 -30
35 -29 0 -30 1 -30 50 l0 50 -45 0 -45 0 0 -50z"/>
<path d="M2550 611 c0 -48 -2 -51 -25 -51 -22 0 -25 -4 -25 -35 0 -31 3 -35
25 -35 l25 0 0 -130 c0 -160 6 -170 100 -170 l60 0 0 35 c0 32 -2 35 -30 35
l-30 0 0 114 0 115 28 3 c23 3 27 8 27 33 0 25 -4 31 -27 33 -24 3 -27 8 -30
50 l-3 47 -47 3 -48 3 0 -50z"/>
<path d="M465 552 c-149 -70 -150 -279 -2 -348 94 -43 181 -24 250 56 20 24
38 42 40 39 1 -2 7 -17 13 -34 20 -63 126 -98 224 -75 66 16 100 55 100 115 0
56 -36 89 -117 105 -83 16 -113 30 -113 51 0 43 78 52 116 14 18 -18 36 -25
64 -25 43 0 45 4 30 44 -21 55 -119 86 -204 65 -62 -15 -96 -56 -96 -114 0
-59 35 -88 134 -110 90 -20 111 -38 77 -66 -13 -11 -31 -19 -41 -19 -33 0 -79
22 -85 41 -5 15 -16 19 -54 19 l-48 0 5 48 c6 65 -32 141 -89 179 -55 36 -145
42 -204 15z"/>
<path d="M1264 556 c-18 -8 -35 -19 -38 -25 -11 -18 -26 -13 -26 10 0 18 -5
20 -42 17 l-43 -3 -3 -252 -2 -253 51 0 50 0 -3 90 c-2 50 -2 90 0 90 2 0 17
-10 33 -22 41 -30 116 -31 156 -2 95 69 97 269 3 336 -35 24 -98 31 -136 14z
m77 -95 c24 -25 29 -37 29 -81 0 -89 -39 -132 -105 -116 -36 9 -59 50 -59 107
0 55 17 92 48 107 35 18 56 13 87 -17z"/>
<path d="M1958 558 c-44 -12 -88 -59 -88 -94 0 -21 4 -24 39 -24 30 0 42 5 55
26 15 22 23 25 64 22 41 -3 47 -6 50 -27 5 -33 -6 -40 -78 -52 -83 -13 -118
-33 -136 -76 -20 -47 -8 -99 29 -127 40 -29 115 -29 156 1 37 28 37 28 44 3 4
-17 14 -20 57 -20 41 0 50 3 42 13 -6 7 -12 75 -14 154 -3 132 -5 143 -26 166
-24 25 -90 48 -134 46 -13 -1 -40 -6 -60 -11z"/>
<path d="M1510 376 l0 -186 45 0 45 0 -2 183 -3 182 -42 3 -43 3 0 -185z"/>
<path d="M2387 554 c-4 -4 -7 -88 -7 -186 l0 -178 50 0 50 0 -2 183 -3 182
-40 3 c-23 2 -44 0 -48 -4z"/>
<path d="M2730 553 c0 -5 30 -93 66 -196 57 -161 65 -191 56 -212 -9 -19 -19
-25 -42 -25 -28 0 -30 -2 -30 -40 0 -39 1 -40 34 -40 48 0 82 15 101 43 9 14
49 119 90 233 40 115 76 217 80 227 6 15 1 17 -44 17 l-50 0 -11 -42 c-45
-170 -60 -218 -69 -218 -6 0 -17 32 -66 203 l-16 57 -50 0 c-27 0 -49 -3 -49
-7z"/>
</g>
</svg>
