<svg xmlns="http://www.w3.org/2000/svg" viewBox="0 0 392.3 87.6"><path d="M43 64.2H30.5V35.3c0-3.5-.2-9.4-8.1-9.4-5.5 0-9.8 3.8-9.8 11v27.3H0V0h12.5v22.8h.2c1.6-3.9 7-7.4 13.8-7.4 9.3 0 16.5 5.5 16.5 15.9v32.9zm82.2-33.1c-.5-3-1.6-6.3-8.4-6.3s-7.7 2.6-7.7 4.6c0 7.5 29.8 2.1 29.8 19.6 0 13.9-13.4 16.4-20.8 16.4-10.8 0-22.5-3.8-22.9-16.4H108c0 4 2.5 7 10.4 7 6.4 0 8-3.1 8-4.9 0-8-29.5-2-29.5-19.8 0-7 4.4-15.9 19.2-15.9 9.3 0 20.4 2.3 21.4 15.7h-12.3zm27.5-7.6h.2c2.3-3.8 5.8-8.1 14.2-8.1 10.5 0 19.8 8 19.8 24.5 0 13-5.9 25.6-20 25.6-8.8 0-11.9-4.7-13.4-7.3h-.2v24.6h-12.5V16.6h12v6.9zm11 31.6c8 0 10.3-8.8 10.3-14.4 0-7.5-2.7-14.6-10.6-14.6-8.6 0-10.6 7.7-10.6 15.3-.1 7.1 2.9 13.7 10.9 13.7"/><path d="M96.2 40.1c0 14.1-11.7 25.5-26.1 25.5C55.7 65.6 44 54.2 44 40.1s11.7-25.5 26.1-25.5c14.4 0 26.1 11.5 26.1 25.5M203 11h-12.5V-.6H203V11zm0 53.2h-12.5V16.6H203v47.6zm21.6-47.6h7.8v8.9h-7.8v25.8c0 2.8.1 3.8 5.2 3.8.8 0 1.7-.1 2.6-.2v9.5c-2 .1-3.9.2-5.9.2h-1.6c-10.8 0-12.8-4.1-12.8-10.3V25.6h-6.4v-8.9h6.4V3.8h12.5v12.8zm51.7 38.3c0 5.6 1.3 6.9 2.8 7.4v1.9h-13.5c-.7-2.2-.9-2.9-1.2-5.6-2.9 3-6.9 6.9-15.4 6.9-7.2 0-14.5-4-14.5-13.9 0-9.3 5.9-14 13.9-15.2l11.3-1.7c2-.3 4.4-1.1 4.4-3.8 0-5.3-5-5.5-8.2-5.5-6.3 0-7.3 3.8-7.7 6.6h-12.1c1.4-14.6 11.5-16.6 21.3-16.6 6.7 0 18.9 2.1 18.9 13.8v25.7zM264 41c-1.2 1-3.3 1.8-8.5 2.6-4.6.8-8.5 2-8.5 7.2 0 4.4 3.4 5.7 5.8 5.7 5.5 0 11.2-3.6 11.2-9.4V41zm18.4-41h12.5v64.2h-12.5zm31.8 11h-12.5V-.6h12.5V11zm0 53.2h-12.5V16.6h12.5v47.6zm21.6-47.6h7.8v8.9h-7.8v25.8c0 2.8.1 3.8 5.2 3.8.8 0 1.7-.1 2.6-.2v9.5c-2 .1-3.9.2-5.9.2H336c-10.8 0-12.8-4.1-12.8-10.3V25.6h-6.4v-8.9h6.4V3.8h12.5v12.8zM376 63.4c-5.9 17.6-7.5 19.9-18.4 19.9-1.7 0-3.8-.1-5.6-.2v-10c.5.1 1.3.2 2.4.2 4.6 0 7.1-.6 8.2-7.2l-17.5-49.5H359l10.2 35h.2l9.7-35h13.2L376 63.4zm-109.9 9.9h1.7v1.4c.4-.5.8-.9 1.1-1.1.6-.4 1.2-.6 1.9-.6.8 0 1.4.2 1.9.6.3.2.5.6.8 1 .4-.5.8-.9 1.3-1.2.5-.3 1.1-.4 1.7-.4 1.4 0 2.3.5 2.8 1.5.3.5.4 1.2.4 2.1v6.7h-1.8v-7c0-.7-.2-1.1-.5-1.4-.3-.2-.7-.4-1.2-.4-.7 0-1.2.2-1.7.7-.5.4-.7 1.2-.7 2.2v5.8H272v-6.5c0-.7-.1-1.2-.2-1.5-.3-.5-.7-.7-1.4-.7-.6 0-1.2.2-1.7.7-.5.5-.8 1.4-.8 2.7v5.3h-1.7v-9.9zm21.4 4c.4 0 .6-.2.8-.5.1-.1.1-.4.1-.6 0-.6-.2-1-.6-1.3-.4-.3-1-.4-1.8-.4-.9 0-1.5.2-1.9.7-.2.3-.3.7-.4 1.2h-1.6c0-1.2.4-2.1 1.2-2.6.8-.5 1.7-.7 2.7-.7 1.2 0 2.1.2 2.9.7.7.4 1.1 1.1 1.1 2.1v5.8c0 .2 0 .3.1.4.1.1.2.2.5.2h.6v1.2c-.3.1-.5.1-.6.1h-.6c-.6 0-1-.2-1.3-.6-.1-.2-.2-.5-.3-.9-.3.4-.8.8-1.5 1.2-.6.3-1.4.5-2.1.5-.9 0-1.7-.3-2.3-.8-.6-.6-.9-1.3-.9-2.1 0-.9.3-1.6.9-2.2.6-.5 1.3-.8 2.3-.9l2.7-.5zm-3.6 4.5c.4.3.8.4 1.3.4.6 0 1.2-.1 1.7-.4.9-.5 1.4-1.2 1.4-2.2v-1.4c-.2.1-.5.2-.8.3-.3.1-.6.2-1 .2l-1 .1c-.6.1-1.1.2-1.4.4-.5.3-.8.8-.8 1.4.1.6.3 1 .6 1.2m14.4-8.1c.3.2.6.5 1 1v-1.3h1.6v9.1c0 1.3-.2 2.3-.6 3-.7 1.4-2 2-3.9 2-1.1 0-2-.2-2.7-.7-.7-.5-1.1-1.2-1.2-2.3h1.7c.1.5.2.8.5 1 .4.4 1 .6 1.8.6 1.3 0 2.1-.5 2.5-1.4.2-.5.3-1.5.3-2.9-.3.5-.7.9-1.2 1.1-.5.3-1.1.4-1.9.4-1.1 0-2-.4-2.8-1.2-.8-.8-1.2-2-1.2-3.8 0-1.7.4-3 1.2-3.9.8-.9 1.8-1.4 3-1.4.7.1 1.3.3 1.9.7m.2 1.8c-.5-.6-1.2-.9-1.9-.9-1.2 0-2 .6-2.4 1.7-.2.6-.3 1.4-.3 2.3 0 1.1.2 2 .7 2.6.5.6 1.1.9 1.8.9 1.2 0 2.1-.5 2.5-1.6.3-.6.4-1.3.4-2.2 0-1.2-.3-2.2-.8-2.8m10.3 1.8c.4 0 .6-.2.8-.5.1-.1.1-.4.1-.6 0-.6-.2-1-.6-1.3-.4-.3-1-.4-1.8-.4-.9 0-1.5.2-1.9.7-.2.3-.3.7-.4 1.2h-1.6c0-1.2.4-2.1 1.2-2.6.8-.5 1.7-.7 2.7-.7 1.2 0 2.1.2 2.9.7.7.4 1.1 1.1 1.1 2.1v5.8c0 .2 0 .3.1.4.1.1.2.2.5.2h.6v1.2c-.3.1-.5.1-.6.1h-.6c-.6 0-1-.2-1.3-.6-.1-.2-.2-.5-.3-.9-.3.4-.8.8-1.5 1.2-.6.3-1.4.5-2.1.5-.9 0-1.7-.3-2.3-.8-.6-.6-.9-1.3-.9-2.1 0-.9.3-1.6.9-2.2.6-.5 1.3-.8 2.3-.9l2.7-.5zm-3.5 4.5c.4.3.8.4 1.3.4.6 0 1.2-.1 1.7-.4.9-.5 1.4-1.2 1.4-2.2v-1.4c-.2.1-.5.2-.8.3-.3.1-.6.2-1 .2l-1 .1c-.6.1-1.1.2-1.4.4-.5.3-.8.8-.8 1.4 0 .6.2 1 .6 1.2m8 .2l6-7.2h-5.5v-1.5h7.8v1.4l-5.9 7.1h6.1v1.6h-8.5zm10.4-12.4h1.7v1.9h-1.7v-1.9zm0 3.8h1.7v10h-1.7v-10zm4.3-.1h1.6v1.4c.5-.6 1-1 1.5-1.3.5-.3 1.1-.4 1.8-.4 1.4 0 2.4.5 2.9 1.5.3.5.4 1.3.4 2.3v6.4h-1.7V77c0-.6-.1-1.1-.3-1.5-.3-.6-.8-.9-1.6-.9-.4 0-.7 0-1 .1-.5.1-.9.4-1.2.8-.3.3-.5.7-.5 1-.1.4-.1.9-.1 1.5v5.3H328v-10zm16.8.3c.7.3 1.2.8 1.5 1.3.3.5.6 1.1.7 1.8.1.5.1 1.2.1 2.2h-7.3c0 1 .3 1.8.7 2.5.4.6 1.1.9 2.1.9.9 0 1.6-.3 2.1-.9.3-.3.5-.7.6-1.2h1.7c0 .4-.2.8-.4 1.2-.2.5-.5.8-.8 1.1-.5.5-1.1.8-1.9 1-.4.1-.9.1-1.4.1-1.2 0-2.3-.5-3.2-1.4-.9-.9-1.3-2.2-1.3-3.8 0-1.6.4-2.9 1.3-3.9s2-1.5 3.4-1.5c.8.1 1.5.3 2.1.6m.6 3.9c-.1-.7-.2-1.3-.5-1.8-.5-.8-1.2-1.2-2.3-1.2-.8 0-1.4.3-1.9.8-.5.6-.8 1.3-.8 2.1h5.5z"/></svg>