<svg version="1" xmlns="http://www.w3.org/2000/svg" width="413.333" height="93.333" viewBox="0 0 310.000000 70.000000"><path d="M0 26v25h10V38.5c0-12 .1-12.7 2.5-15 3-3.1 7.5-3.3 10.1-.4 1.6 1.8 1.9 4 2.2 15l.4 12.9H34V37.5c0-15-1-19.2-5.5-22.1-4-2.6-11.7-2.4-15.5.4l-3 2.3V1H0v25zm223 0v25h9V1h-9v25zM168 9c0 4.7-.2 5-2.5 5-2.2 0-2.5.4-2.5 3.5s.3 3.5 2.5 3.5h2.5v13.4c0 12.8.1 13.6 2.2 15 1.4 1 4.4 1.6 7.5 1.6h5.3v-3.5c0-3.2-.2-3.5-3-3.5h-3V21h3c2.8 0 3-.3 3-3.5s-.2-3.5-3-3.5c-2.9 0-3-.1-3-5V4h-9v5zm87-.1c0 4.8-.2 5.1-2.5 5.1-2.2 0-2.5.4-2.5 3.5s.3 3.5 2.5 3.5h2.5v13c0 16 .6 17 10 17h6v-3.5c0-3.2-.2-3.5-3-3.5h-3V21.1l2.8-.3c2.3-.3 2.7-.8 2.7-3.3s-.4-3.1-2.7-3.3c-2.4-.3-2.7-.8-3-5l-.3-4.7-4.7-.3-4.8-.3v5z"/><path d="M46.5 14.8c-14.9 7-15 27.9-.2 34.8 9.4 4.3 18.1 2.4 25-5.6 2-2.4 3.8-4.2 4-3.9.1.2.7 1.7 1.3 3.4 2 6.3 12.6 9.8 22.4 7.5 6.6-1.6 10-5.5 10-11.5 0-5.6-3.6-8.9-11.7-10.5C89 27.4 86 26 86 23.9c0-4.3 7.8-5.2 11.6-1.4 1.8 1.8 3.6 2.5 6.4 2.5 4.3 0 4.5-.4 3-4.4-2.1-5.5-11.9-8.6-20.4-6.5-6.2 1.5-9.6 5.6-9.6 11.4 0 5.9 3.5 8.8 13.4 11 9 2 11.1 3.8 7.7 6.6C96.8 44.2 95 45 94 45c-3.3 0-7.9-2.2-8.5-4.1-.5-1.5-1.6-1.9-5.4-1.9h-4.8l.5-4.8c.6-6.5-3.2-14.1-8.9-17.9-5.5-3.6-14.5-4.2-20.4-1.5zm79.9-.4c-1.8.8-3.5 1.9-3.8 2.5-1.1 1.8-2.6 1.3-2.6-1 0-1.8-.5-2-4.2-1.7l-4.3.3-.3 25.2L111 65h10.1l-.3-9c-.2-5-.2-9 0-9s1.7 1 3.3 2.2c4.1 3 11.6 3.1 15.6.2 9.5-6.9 9.7-26.9.3-33.6-3.5-2.4-9.8-3.1-13.6-1.4zm7.7 9.5c2.4 2.5 2.9 3.7 2.9 8.1 0 8.9-3.9 13.2-10.5 11.6-3.6-.9-5.9-5-5.9-10.7 0-5.5 1.7-9.2 4.8-10.7 3.5-1.8 5.6-1.3 8.7 1.7zm61.7-9.7c-4.4 1.2-8.8 5.9-8.8 9.4 0 2.1.4 2.4 3.9 2.4 3 0 4.2-.5 5.5-2.6 1.5-2.2 2.3-2.5 6.4-2.2 4.1.3 4.7.6 5 2.7.5 3.3-.6 4-7.8 5.2-8.3 1.3-11.8 3.3-13.6 7.6-2 4.7-.8 9.9 2.9 12.7 4 2.9 11.5 2.9 15.6-.1 3.7-2.8 3.7-2.8 4.4-.3.4 1.7 1.4 2 5.7 2 4.1 0 5-.3 4.2-1.3-.6-.7-1.2-7.5-1.4-15.4-.3-13.2-.5-14.3-2.6-16.6-2.4-2.5-9-4.8-13.4-4.6-1.3.1-4 .6-6 1.1zM151 32.4V51h9l-.2-18.3-.3-18.2-4.2-.3-4.3-.3v18.5zm87.7-17.8c-.4.4-.7 8.8-.7 18.6V51h10l-.2-18.3-.3-18.2-4-.3c-2.3-.2-4.4 0-4.8.4zm34.3.1c0 .5 3 9.3 6.6 19.6 5.7 16.1 6.5 19.1 5.6 21.2-.9 1.9-1.9 2.5-4.2 2.5-2.8 0-3 .2-3 4 0 3.9.1 4 3.4 4 4.8 0 8.2-1.5 10.1-4.3.9-1.4 4.9-11.9 9-23.3 4-11.5 7.6-21.7 8-22.7.6-1.5.1-1.7-4.4-1.7h-5l-1.1 4.2c-4.5 17-6 21.8-6.9 21.8-.6 0-1.7-3.2-6.6-20.3l-1.6-5.7h-5c-2.7 0-4.9.3-4.9.7z"/></svg>